<?xml version="1.0" encoding="utf-8"?>
<!-- Generator: Adobe Illustrator 24.0.1, SVG Export Plug-In . SVG Version: 6.00 Build 0)  -->
<svg version="1.1" id="Layer_1" xmlns="http://www.w3.org/2000/svg" xmlns:xlink="http://www.w3.org/1999/xlink" x="0px" y="0px"
	 viewBox="0 0 380 100" style="enable-background:new 0 0 380 100;" xml:space="preserve">
<style type="text/css">
	.st0{fill:#FFFFFF;}
	.st1{fill:#5A2E98;}
</style>
<path class="st0" d="M63.14,81.09H32.9l-8.39,17.67H0L50.13,4.53h20.94l17.49,94.23H65.41L63.14,81.09z M41.23,63.62h19.64
	L56.7,31.13L41.23,63.62z"/>
<path class="st0" d="M123.81,28.67l-1.5,8.41c5.63-6.64,12.42-9.88,20.35-9.71c6.5,0.13,11.35,2.54,14.53,7.22
	c3.19,4.68,4.35,11.38,3.48,20.09l-7.41,44.07H131.8l7.48-44.25c0.17-1.51,0.22-2.89,0.13-4.15c-0.3-4.1-2.73-6.16-7.28-6.16
	c-3.77-0.09-7.22,1.58-10.34,4.99l-8.78,49.57H91.62l12.22-70.03L123.81,28.67z"/>
<path class="st0" d="M188.11,98.76h-21.46l12.22-70.03h21.46L188.11,98.76z M180.77,11.07c-0.09-3.15,1.03-5.78,3.35-7.9
	c2.32-2.11,5.13-3.17,8.42-3.17c3.34,0,6.12,0.95,8.36,2.85c2.23,1.9,3.39,4.38,3.48,7.44c0.09,3.19-1.02,5.84-3.32,7.93
	s-5.12,3.14-8.45,3.14c-3.25,0-6.01-0.94-8.29-2.82C182.03,16.66,180.85,14.17,180.77,11.07z"/>
<path class="st1" d="M281.16,87.18c-3.55,4.14-8.74,7.35-15.54,9.61c-6.81,2.27-14.35,3.33-22.63,3.2
	c-7.93-0.09-14.63-2.07-20.09-5.95c-5.46-3.88-9.36-9.3-11.7-16.24c-2.34-6.95-2.97-14.78-1.89-23.49l0.52-3.88
	c1.99-14.63,7.16-26.21,15.51-34.75C233.69,7.12,243.9,2.96,256,3.17c10.58,0.17,18.7,3,24.38,8.48s8.84,13.4,9.49,23.75
	l-21.33-0.06c-0.3-5.03-1.55-8.7-3.74-11.02s-5.3-3.54-9.33-3.67c-5.98-0.22-10.92,2.12-14.83,7.01c-3.9,4.89-6.57,11.88-8,20.98
	c-1.21,7.76-1.65,13.79-1.3,18.1c0.65,10.39,5.35,15.65,14.11,15.78c5.29,0.09,9.93-1.19,13.92-3.82l2.93-14.69h-15.4l2.73-15.6
	h37.65L281.16,87.18z"/>
<path class="st1" d="M376.94,22.07h-27.57l-13.33,76.69h-22.3l13.39-76.69h-27.11l3.12-17.54H380L376.94,22.07z"/>
</svg>
